<svg xmlns="http://www.w3.org/2000/svg" width="27.798" height="21.323" viewBox="0 0 27.798 21.323">
  <path id="Icon_zocial-persona" data-name="Icon zocial-persona" d="M11.406,16.735a52.049,52.049,0,0,1-5.763-.2s.225-3.441,1.8-4.059,1.959-.532,2.505-.861l.041-.023v-.926A4.266,4.266,0,0,1,8.8,8.727a1.537,1.537,0,0,1-.448-1.049,1.428,1.428,0,0,1,.219-.746C8.666,4.992,9.9,3.709,11.41,3.709s2.744,1.284,2.837,3.223a1.424,1.424,0,0,1,.219.746,1.537,1.537,0,0,1-.448,1.049,4.257,4.257,0,0,1-1.185,1.943V11.6l.04.023c.547.33.932.242,2.506.861s1.8,4.059,1.8,4.059a52.322,52.322,0,0,1-5.771.2M18.653-.035H1.009A1.015,1.015,0,0,0-.006.981V20.274a1.014,1.014,0,0,0,1.015,1.015H18.653l9.138-10.661L18.653-.035Z" transform="translate(0.006 0.035)"/>
</svg>
