<svg xmlns="http://www.w3.org/2000/svg" width="28.074" height="28.074" viewBox="0 0 28.074 28.074">
  <path id="Icon_ionic-ios-football" data-name="Icon ionic-ios-football" d="M17.412,3.375A14.037,14.037,0,1,0,31.449,17.412,14.035,14.035,0,0,0,17.412,3.375ZM26,8.821a12.053,12.053,0,0,1,1.525,1.856.247.247,0,0,1,.027.236L26.583,13.7a.268.268,0,0,1-.142.155l-3.88,1.768a.272.272,0,0,1-.283-.04l-3.82-3.212a.277.277,0,0,1-.094-.209V7.9a.27.27,0,0,1,.121-.223l2.591-1.761a.266.266,0,0,1,.236-.034A12.3,12.3,0,0,1,26,8.821ZM21.016,28.9a.249.249,0,0,1-.175.162,12.13,12.13,0,0,1-3.428.486,12.341,12.341,0,0,1-3.428-.486.28.28,0,0,1-.175-.162L12.7,26a.283.283,0,0,1,.013-.223l1.5-2.855a.273.273,0,0,1,.236-.142h5.905a.265.265,0,0,1,.236.142l1.5,2.855a.283.283,0,0,1,.013.223ZM16.467,7.917v4.258a.277.277,0,0,1-.094.209L12.546,15.59a.272.272,0,0,1-.283.04l-3.88-1.768a.266.266,0,0,1-.142-.155l-.972-2.78A.264.264,0,0,1,7.3,10.69a12.235,12.235,0,0,1,6.222-4.778.266.266,0,0,1,.236.034l2.591,1.761A.223.223,0,0,1,16.467,7.917ZM5.379,17.959l2.436-2.106a.269.269,0,0,1,.29-.04l3.536,1.606a.27.27,0,0,1,.148.182l.985,3.867a.323.323,0,0,1-.02.2L11.19,24.626a.263.263,0,0,1-.243.142l-3.1-.04a.282.282,0,0,1-.216-.108,12.061,12.061,0,0,1-2.342-6.438A.3.3,0,0,1,5.379,17.959ZM23.627,24.62l-1.559-2.956a.247.247,0,0,1-.02-.2l.985-3.867a.27.27,0,0,1,.148-.182l3.536-1.606a.283.283,0,0,1,.29.04l2.436,2.106a.273.273,0,0,1,.094.223A12.026,12.026,0,0,1,27.2,24.62a.262.262,0,0,1-.216.108l-3.111.04A.3.3,0,0,1,23.627,24.62Z" transform="translate(-3.375 -3.375)"/>
</svg>
