<svg xmlns="http://www.w3.org/2000/svg" width="46.473" height="42.263" viewBox="0 0 46.473 42.263"><path d="M32.482,6.868l7.277,7.447a.821.821,0,0,1,0,1.139L22.139,33.485l-7.487.85a1.588,1.588,0,0,1-1.735-1.775l.831-7.662L31.369,6.868A.776.776,0,0,1,32.482,6.868Zm13.07-1.891L41.616.948a3.1,3.1,0,0,0-4.454,0L34.306,3.871a.821.821,0,0,0,0,1.139l7.277,7.447a.776.776,0,0,0,1.113,0l2.856-2.923a3.282,3.282,0,0,0,0-4.557Zm-14.571,23.6v8.4H5.164V10.566H23.7a.981.981,0,0,0,.686-.289l3.227-3.3a.994.994,0,0,0-.686-1.692H3.873A3.92,3.92,0,0,0,0,9.246V38.307A3.92,3.92,0,0,0,3.873,42.27h28.4a3.92,3.92,0,0,0,3.873-3.963V25.279a.967.967,0,0,0-1.654-.7l-3.227,3.3A1.027,1.027,0,0,0,30.982,28.581Z" transform="translate(0 -0.007)"/></svg>